Coordinates
version=1
nRows=10
nColumns=46
inDegrees=yes

Units are S.I. units (second, meters, Newtons, ...)
Angles are in degrees.

endheader
time	pelvis_tilt	pelvis_list	pelvis_rotation	pelvis_tx	pelvis_ty	pelvis_tz	bb_angle	bb_tx	bb_ty	bb_tz	hip_flexion_r	hip_adduction_r	hip_rotation_r	knee_angle_r	knee_angle_r_beta	ankle_angle_r	subtalar_angle_r	mtp_angle_r	crank_angle_r	hip_flexion_l	hip_adduction_l	hip_rotation_l	knee_angle_l	knee_angle_l_beta	ankle_angle_l	subtalar_angle_l	mtp_angle_l	crank_angle_l	lumbar_extension	lumbar_bending	lumbar_rotation	arm_flex_r	arm_add_r	arm_rot_r	elbow_flex_r	pro_sup_r	wrist_flex_r	wrist_dev_r	arm_flex_l	arm_add_l	arm_rot_l	elbow_flex_l	pro_sup_l	wrist_flex_l	wrist_dev_l
      2.50000000	    -27.59461844	     -6.44457568	     -8.39719586	      0.38394074	      1.15682284	     -0.23065885	      0.00000000	      0.50000000	      0.00000000	      0.25000000	     63.77077763	      6.44408749	     -0.37887712	     66.07434143	      1.15321481	     21.93000791	     -7.79278479	      0.00000000	      0.00000000	     45.77380708	    -11.80298993	      6.13638154	     64.02209788	      1.11739640	    -21.87409945	    -10.59169549	      0.00000000	      0.00000000	    -58.83412292	      4.80217024	      9.05207903	     62.92098440	    -30.68490625	     44.01555396	     91.37812964	     60.71706823	      0.00000000	      0.00000000	     39.52185972	    -20.43439335	      6.23928806	     89.89946703	     54.12704728	      0.00000000	      0.00000000
      2.50500000	    -27.13588464	     -5.79606887	     -8.22972396	      0.38487896	      1.15446419	     -0.23071913	      0.00000000	      0.50000000	      0.00000000	      0.25000000	     62.82082178	      5.86456936	      0.05515737	     64.89702396	      1.13266674	     21.03943471	     -7.56587247	      0.00000000	      0.00000000	     46.29462016	    -11.12297126	      5.95770970	     66.49502226	      1.16055707	    -20.97969952	    -10.64132459	      0.00000000	      0.00000000	    -58.87006787	      4.47955497	      8.63232029	     62.31525939	    -30.84242367	     43.82838909	     91.62620594	     60.72369481	      0.00000000	      0.00000000	     39.55074819	    -20.07605824	      6.43455807	     89.78493388	     54.12920465	      0.00000000	      0.00000000
      2.51000000	    -26.65954933	     -5.17608479	     -7.99643017	      0.38574165	      1.15213672	     -0.23060193	      0.00000000	      0.50000000	      0.00000000	      0.25000000	     61.77168183	      5.33510125	      0.63303108	     63.65495773	      1.11098860	     20.32359666	     -7.29078423	      0.00000000	      0.00000000	     46.84717797	    -10.48534270	      5.83130003	     68.87300528	      1.20206071	    -20.59777974	    -10.49913914	      0.00000000	      0.00000000	    -58.88031864	      4.09555650	      8.16126402	     61.84359690	    -31.06460908	     43.67226865	     91.75235916	     60.72387717	      0.00000000	      0.00000000	     39.39989317	    -19.87813508	      6.45863224	     89.62181606	     54.10885418	      0.00000000	      0.00000000
      2.51500000	    -26.44811537	     -4.64633955	     -7.74304054	      0.38650250	      1.14909077	     -0.23037561	      0.00000000	      0.50000000	      0.00000000	      0.25000000	     61.02696806	      4.87960517	      1.07596505	     62.48511133	      1.09057093	     19.26851460	     -7.47325972	      0.00000000	      0.00000000	     47.76498104	     -9.99723651	      5.82115488	     71.40982593	      1.24633658	    -19.32928043	     -9.38073552	      0.00000000	      0.00000000	    -58.56473228	      3.54997319	      9.22179865	     57.91849150	    -32.61291267	     39.41399194	     94.55651818	     60.50525429	      0.00000000	      0.00000000	     40.73219773	    -17.41906350	      7.40237139	     87.94617879	     53.94848650	      0.00000000	      0.00000000
      2.52000000	    -26.12989273	     -4.33823320	     -7.47374954	      0.38699856	      1.14599375	     -0.22975430	      0.00000000	      0.50000000	      0.00000000	      0.25000000	     60.10131816	      4.64583425	      1.45501633	     61.28851414	      1.06968637	     18.36940782	     -7.70370812	      0.00000000	      0.00000000	     48.86468430	     -9.96499584	      5.81731718	     74.20826917	      1.29517863	    -18.29513518	     -7.81091492	      0.00000000	      0.00000000	    -58.33966819	      3.29639054	      9.63028450	     56.31830413	    -33.55729414	     38.22064784	     95.60500283	     60.31770352	      0.00000000	      0.00000000	     41.81702332	    -16.79961720	      9.54931702	     86.56275595	     53.96051741	      0.00000000	      0.00000000
      2.52500000	    -25.63845078	     -3.64810892	     -7.08092790	      0.38790900	      1.14342270	     -0.22995378	      0.00000000	      0.50000000	      0.00000000	      0.25000000	     59.00665775	      3.93647645	      1.99752106	     60.13631843	      1.04957676	     17.51683498	     -7.69896244	      0.00000000	      0.00000000	     49.28694984	     -9.06600163	      5.62573082	     76.38452934	      1.33316153	    -17.51410542	     -8.15579075	      0.00000000	      0.00000000	    -58.32857493	      3.04160974	      8.84833091	     55.82204794	    -33.48498436	     38.22118870	     95.66237910	     60.32239300	      0.00000000	      0.00000000	     41.66593339	    -16.59050128	      9.69115214	     86.46616295	     53.96380819	      0.00000000	      0.00000000
      2.53000000	    -25.13803711	     -2.96048079	     -6.62268749	      0.38876897	      1.14073642	     -0.22996761	      0.00000000	      0.50000000	      0.00000000	      0.25000000	     57.89681259	      3.20965968	      2.50535725	     59.04352285	      1.03050388	     16.66697485	     -8.03691480	      0.00000000	      0.00000000	     49.91373035	     -8.32313060	      5.44774574	     78.72137731	      1.37394723	    -16.74122700	     -7.72928407	      0.00000000	      0.00000000	    -58.29252103	      2.77529209	      7.95921531	     55.08011627	    -33.20999329	     37.91713741	     95.71169945	     60.28253017	      0.00000000	      0.00000000	     41.52873406	    -16.56491659	      9.78829846	     86.32866805	     53.95593943	      0.00000000	      0.00000000
      2.53500000	    -24.79709272	     -2.41124637	     -6.23153471	      0.38953286	      1.13781476	     -0.22964004	      0.00000000	      0.50000000	      0.00000000	      0.25000000	     56.86356429	      2.70967935	      3.03049486	     57.86824473	      1.00999140	     15.64313526	     -8.43071778	      0.00000000	      0.00000000	     50.75533224	     -7.81272864	      5.32934059	     81.09035747	      1.41529373	    -15.90546521	     -7.11588280	      0.00000000	      0.00000000	    -58.08532323	      2.50989594	      7.18060031	     53.87082981	    -32.38458978	     36.77240816	     95.60201165	     60.08322378	      0.00000000	      0.00000000	     41.26702799	    -16.68621199	      9.92362950	     86.36252919	     53.98347723	      0.00000000	      0.00000000
      2.54000000	    -24.33617051	     -1.78548205	     -5.74945970	      0.39034094	      1.13516441	     -0.22952669	      0.00000000	      0.50000000	      0.00000000	      0.25000000	     55.67047601	      2.03683864	      3.58150681	     56.73131232	      0.99014819	     15.12606557	     -8.46663674	      0.00000000	      0.00000000	     51.51521364	     -7.24044037	      5.08890348	     83.38917789	      1.45541571	    -15.52106589	     -6.98031113	      0.00000000	      0.00000000	    -58.01326566	      2.24386493	      6.35449382	     53.42214249	    -32.42524047	     36.80010995	     95.54895203	     60.08172707	      0.00000000	      0.00000000	     41.14972032	    -16.54333632	     10.04052199	     86.30171540	     53.98878592	      0.00000000	      0.00000000
      2.54500000	    -23.98433656	     -1.12784242	     -5.07442053	      0.39112268	      1.13241294	     -0.22971912	      0.00000000	      0.50000000	      0.00000000	      0.25000000	     54.57113178	      1.17383225	      3.93863544	     55.59602556	      0.97033370	     14.03081107	     -8.93960391	      0.00000000	      0.00000000	     52.30153508	     -6.27126281	      5.12558864	     85.54350042	      1.49301574	    -14.51795410	     -6.62008849	      0.00000000	      0.00000000	    -57.78419157	      2.11029011	      5.36225894	     52.52408166	    -32.09116334	     36.66501563	     95.39023771	     60.04121509	      0.00000000	      0.00000000	     40.91990091	    -16.70350984	     10.12689567	     86.20575238	     53.98730989	      0.00000000	      0.00000000
